<svg width="25" height="25" viewBox="0 0 25 25" fill="none" xmlns="http://www.w3.org/2000/svg">
<path d="M0.100098 24.1L2.15565 15.8222L14.7668 3.21112L20.989 9.43335L8.37787 22.0444L0.100098 24.1ZM3.6001 16.6L2.26676 21.9333L7.6001 20.6L18.8223 9.37779L14.8223 5.37778L3.6001 16.6Z" fill="#134563"/>
<path d="M7.04441 21.5445C6.48885 19.3778 4.82218 17.7111 2.65552 17.1556L3.04441 15.6C5.76663 16.2667 7.87774 18.3778 8.54441 21.1L7.04441 21.5445Z" fill="#134563"/>
<path d="M6.87771 18.4889L5.7666 17.3222L16.8222 6.26666L17.9333 7.37777L6.87771 18.4889Z" fill="#134563"/>
<path d="M1.21118 22.9889L3.65562 22.3778C3.4334 21.4889 2.71118 20.7667 1.82229 20.5444L1.21118 22.9889Z" fill="#134563"/>
<path d="M21.6001 8.8222L15.3779 2.59997L17.8779 0.0999756L18.2668 0.155535C21.2668 0.544423 23.6557 2.93331 24.0446 5.93331L24.1001 6.3222L21.6001 8.8222ZM17.6557 2.59997L21.6557 6.59998L22.4335 5.82221C21.989 3.82221 20.4335 2.26664 18.4335 1.8222L17.6557 2.59997Z" fill="#134563"/>
</svg>
