<svg width="54" height="54" viewBox="0 0 54 54" fill="none" xmlns="http://www.w3.org/2000/svg">
<path d="M18.9018 2H6.10136C3.83624 2 2 3.83624 2 6.10136V18.9018C2 21.1669 3.83624 23.0031 6.10136 23.0031H18.9018C21.1669 23.0031 23.0031 21.1669 23.0031 18.9018V6.10136C23.0031 3.83624 21.1669 2 18.9018 2Z" stroke="#333333" stroke-width="4" stroke-miterlimit="10" stroke-linecap="round"/>
<path d="M47.8986 2H35.0982C32.8331 2 30.9968 3.83624 30.9968 6.10136V18.9018C30.9968 21.1669 32.8331 23.0031 35.0982 23.0031H47.8986C50.1637 23.0031 51.9999 21.1669 51.9999 18.9018V6.10136C51.9999 3.83624 50.1637 2 47.8986 2Z" stroke="#333333" stroke-width="4" stroke-miterlimit="10" stroke-linecap="round"/>
<path d="M18.9018 30.8401H6.10136C3.83624 30.8401 2 32.6764 2 34.9415V47.7419C2 50.007 3.83624 51.8433 6.10136 51.8433H18.9018C21.1669 51.8433 23.0031 50.007 23.0031 47.7419V34.9415C23.0031 32.6764 21.1669 30.8401 18.9018 30.8401Z" stroke="#333333" stroke-width="4" stroke-miterlimit="10" stroke-linecap="round"/>
<path d="M41.4199 30.8401V51.6865" stroke="#333333" stroke-width="4" stroke-miterlimit="10" stroke-linecap="round"/>
<path d="M51.8432 41.2633H30.9968" stroke="#333333" stroke-width="4" stroke-miterlimit="10" stroke-linecap="round"/>
</svg>
