<svg width="20" height="21" viewBox="0 0 20 21" fill="none" xmlns="http://www.w3.org/2000/svg">
<path d="M19.0909 3.63636H13.6364V2.72727C13.6364 2.00395 13.349 1.31026 12.8376 0.7988C12.3261 0.287337 11.6324 0 10.9091 0L9.09091 0C8.36759 0 7.6739 0.287337 7.16244 0.7988C6.65097 1.31026 6.36364 2.00395 6.36364 2.72727V3.63636H0.909091C0.667985 3.63636 0.436754 3.73214 0.266267 3.90263C0.0957789 4.07312 0 4.30435 0 4.54545C0 4.78656 0.0957789 5.01779 0.266267 5.18828C0.436754 5.35877 0.667985 5.45455 0.909091 5.45455H2.72727V18.1818C2.72727 18.9051 3.01461 19.5988 3.52607 20.1103C4.03754 20.6218 4.73123 20.9091 5.45455 20.9091H14.5455C15.2688 20.9091 15.9625 20.6218 16.4739 20.1103C16.9854 19.5988 17.2727 18.9051 17.2727 18.1818V5.45455H19.0909C19.332 5.45455 19.5632 5.35877 19.7337 5.18828C19.9042 5.01779 20 4.78656 20 4.54545C20 4.30435 19.9042 4.07312 19.7337 3.90263C19.5632 3.73214 19.332 3.63636 19.0909 3.63636ZM8.18182 2.72727C8.18182 2.48617 8.2776 2.25494 8.44809 2.08445C8.61857 1.91396 8.8498 1.81818 9.09091 1.81818H10.9091C11.1502 1.81818 11.3814 1.91396 11.5519 2.08445C11.7224 2.25494 11.8182 2.48617 11.8182 2.72727V3.63636H8.18182V2.72727ZM7.27273 16.3636C7.27273 16.6047 7.17695 16.836 7.00646 17.0065C6.83597 17.1769 6.60474 17.2727 6.36364 17.2727C6.12253 17.2727 5.8913 17.1769 5.72081 17.0065C5.55032 16.836 5.45455 16.6047 5.45455 16.3636V9.09091C5.45455 8.8498 5.55032 8.61857 5.72081 8.44808C5.8913 8.2776 6.12253 8.18182 6.36364 8.18182C6.60474 8.18182 6.83597 8.2776 7.00646 8.44808C7.17695 8.61857 7.27273 8.8498 7.27273 9.09091V16.3636ZM10.9091 16.3636C10.9091 16.6047 10.8133 16.836 10.6428 17.0065C10.4723 17.1769 10.2411 17.2727 10 17.2727C9.75889 17.2727 9.52766 17.1769 9.35718 17.0065C9.18669 16.836 9.09091 16.6047 9.09091 16.3636V9.09091C9.09091 8.8498 9.18669 8.61857 9.35718 8.44808C9.52766 8.2776 9.75889 8.18182 10 8.18182C10.2411 8.18182 10.4723 8.2776 10.6428 8.44808C10.8133 8.61857 10.9091 8.8498 10.9091 9.09091V16.3636ZM14.5455 16.3636C14.5455 16.6047 14.4497 16.836 14.2792 17.0065C14.1087 17.1769 13.8775 17.2727 13.6364 17.2727C13.3953 17.2727 13.164 17.1769 12.9935 17.0065C12.8231 16.836 12.7273 16.6047 12.7273 16.3636V9.09091C12.7273 8.8498 12.8231 8.61857 12.9935 8.44808C13.164 8.2776 13.3953 8.18182 13.6364 8.18182C13.8775 8.18182 14.1087 8.2776 14.2792 8.44808C14.4497 8.61857 14.5455 8.8498 14.5455 9.09091V16.3636Z" fill="#FF0000"/>
</svg>
